# Faceted crystal mesh for the first StandardLit runtime smoke scene.
v 0.000000 0.780000 0.000000
v 0.000000 -0.780000 0.000000
v 0.000000 0.100000 0.580000
v 0.500000 0.050000 0.240000
v 0.420000 -0.080000 -0.380000
v -0.100000 0.020000 -0.550000
v -0.540000 -0.060000 -0.160000
v -0.380000 0.080000 0.420000

vt 0.500000 0.020000
vt 0.940000 0.920000
vt 0.060000 0.920000

vn 0.503180 0.560808 0.657499
vn 0.837312 0.503287 -0.213568
vn 0.354180 0.517233 -0.779119
vn -0.620068 0.511866 -0.594566
vn -0.845496 0.523160 0.106960
vn -0.334131 0.611649 0.717106
vn 0.456260 -0.489694 0.742985
vn 0.856895 -0.515484 -0.002482
vn 0.164061 -0.544845 -0.822331
vn -0.506125 -0.530675 -0.679869
vn -0.786821 -0.514295 0.341194
vn -0.307017 -0.523735 0.794633

f 1/1/1 3/2/1 4/3/1
f 1/1/2 4/2/2 5/3/2
f 1/1/3 5/2/3 6/3/3
f 1/1/4 6/2/4 7/3/4
f 1/1/5 7/2/5 8/3/5
f 1/1/6 8/2/6 3/3/6
f 2/1/7 4/2/7 3/3/7
f 2/1/8 5/2/8 4/3/8
f 2/1/9 6/2/9 5/3/9
f 2/1/10 7/2/10 6/3/10
f 2/1/11 8/2/11 7/3/11
f 2/1/12 3/2/12 8/3/12
